<svg id="Layer_1" data-name="Layer 1" xmlns="http://www.w3.org/2000/svg" viewBox="0 0 512 512"><defs><style>.cls-1{fill:#fff;}.cls-2{fill:#f36864;}.cls-3{fill:#5abe5c;}.cls-4{fill:#fec547;}.cls-5{fill:#00364b;}</style></defs><title>yabai-icon-512px</title><path class="cls-1" d="M512,39.92V472.08A40,40,0,0,1,472.08,512H39.84A40,40,0,0,1,0,472.08V39.92A40,40,0,0,1,39.84,0H472.08A40,40,0,0,1,512,39.92Z"/><path class="cls-2" d="M460.9,213l-64.85-64.85L373.4,170.79l64.87,64.87a28.63,28.63,0,0,1,0,40.5l-162,162a28.63,28.63,0,0,1-40.5,0l-65.07-65.07L148,395.74l65.09,65.09a60.65,60.65,0,0,0,85.76,0l162-162a60.65,60.65,0,0,0,0-85.76Z"/><path class="cls-3" d="M235.73,72.86a28.63,28.63,0,0,1,40.5,0L341.41,138,364,115.41,298.86,50.23a60.65,60.65,0,0,0-85.76,0l-64.63,64.63,22.62,22.63Z"/><path class="cls-4" d="M73.69,275.4a28.64,28.64,0,0,1,0-40.51l65-65-22.63-22.63-65,65a60.65,60.65,0,0,0,0,85.76L116,363l22.67-22.58Z"/><path class="cls-5" d="M406.87,105a22.92,22.92,0,0,0-32.4,0L256.53,222.92,138.57,105a22.92,22.92,0,0,0-32.41,32.41L224.09,255.3,114.74,364.22l-9.61,9.57a22.91,22.91,0,1,0,32.34,32.47l269.4-268.87A23,23,0,0,0,406.87,105Z"/></svg>