<?xml version="1.0" standalone="no"?>
<!DOCTYPE svg PUBLIC "-//W3C//DTD SVG 20010904//EN"
 "http://www.w3.org/TR/2001/REC-SVG-20010904/DTD/svg10.dtd">
<svg version="1.0" xmlns="http://www.w3.org/2000/svg"
 width="3543.000000pt" height="1004.000000pt" viewBox="0 0 3543.000000 1004.000000"
 preserveAspectRatio="xMidYMid meet">

<g transform="translate(0.000000,1004.000000) scale(0.100000,-0.100000)"
fill="#000000" stroke="none">
<path d="M11610 9099 c-41 -4 -156 -15 -255 -24 -99 -9 -241 -27 -315 -41
-235 -43 -527 -124 -535 -147 -21 -57 -95 -528 -116 -732 -6 -66 -17 -125 -23
-131 -6 -6 -41 -23 -77 -37 -467 -182 -973 -524 -1308 -883 -478 -512 -783
-1089 -922 -1746 -112 -529 -103 -1062 27 -1598 101 -414 283 -818 531 -1180
219 -318 546 -654 856 -879 73 -53 85 -65 72 -75 -13 -9 -4 -16 52 -40 37 -16
124 -59 193 -96 358 -195 604 -296 930 -384 279 -76 687 -131 965 -131 283 0
655 51 978 134 126 32 160 37 202 31 27 -4 51 -13 53 -19 8 -24 98 1 105 29 3
13 14 20 30 20 14 0 29 5 32 10 4 6 -7 10 -24 10 -22 0 -31 5 -31 16 0 11 6
14 21 9 15 -5 22 -2 26 13 3 12 22 27 46 37 23 9 81 35 130 57 l87 41 0 88 c0
49 -3 89 -6 89 -4 0 -47 -20 -98 -44 -50 -24 -102 -47 -114 -51 -27 -8 -27 -6
8 88 l18 48 -26 10 c-90 32 -94 41 -93 213 0 165 -12 356 -39 621 -11 105 -29
291 -40 415 -11 124 -33 356 -50 515 -65 637 -101 1059 -118 1410 -9 179 -5
259 52 925 26 300 41 569 55 942 4 114 10 210 13 213 3 4 28 -9 55 -28 26 -19
86 -51 133 -72 74 -33 110 -42 279 -66 319 -47 666 -117 816 -166 89 -29 110
-42 275 -172 112 -88 158 -109 175 -80 4 6 16 14 27 18 17 6 12 11 -32 39 -68
42 -59 51 15 15 56 -28 57 -28 71 -8 9 11 13 31 11 44 l-5 25 19 -25 c10 -13
33 -51 49 -84 17 -33 48 -94 70 -135 49 -94 110 -227 110 -241 0 -5 10 -29 21
-52 12 -23 30 -70 40 -105 10 -35 22 -69 27 -75 5 -7 17 -46 27 -87 10 -41 22
-83 27 -93 5 -10 21 -73 34 -140 14 -67 29 -140 34 -162 4 -22 13 -103 20
-180 6 -77 15 -164 21 -194 12 -71 12 -347 -1 -425 -5 -33 -17 -132 -25 -218
-8 -87 -18 -164 -21 -171 -4 -11 11 -18 58 -29 35 -9 70 -18 79 -22 20 -9 32
55 60 319 70 665 -62 1358 -376 1974 -268 525 -669 985 -1163 1333 -98 70
-117 87 -134 127 -33 76 -67 184 -104 329 -19 75 -36 137 -37 138 -1 1 -81 -4
-177 -11 -96 -7 -241 -16 -321 -20 l-146 -7 -7 138 c-8 171 -20 222 -53 235
-13 5 -29 9 -34 9 -5 0 -9 -75 -9 -180 0 -153 -2 -182 -15 -187 -20 -7 -299
21 -459 47 -172 28 -384 50 -488 50 l-87 0 5 33 c2 17 13 120 25 227 11 107
35 282 53 388 29 180 30 194 14 203 -20 11 -141 10 -248 -2z m437 -1027 c45
-4 86 -11 91 -17 5 -5 23 -67 41 -137 58 -236 98 -325 249 -548 103 -152 138
-196 265 -327 l99 -102 -6 -53 c-13 -111 -45 -545 -76 -998 -19 -283 -39
-1589 -29 -1910 13 -435 56 -1028 109 -1530 39 -365 62 -633 58 -662 -4 -26 4
-46 -142 370 -91 260 -213 636 -290 897 -114 388 -395 1652 -480 2160 -93 557
-151 1093 -187 1720 -14 242 -17 987 -5 1089 l8 68 106 -6 c59 -4 144 -10 189
-14z m-1694 -284 c-13 -69 -8 -993 5 -1228 32 -541 84 -1035 157 -1471 l35
-207 -6 -273 c-11 -488 35 -1144 152 -2144 14 -121 23 -241 20 -268 -3 -28
-22 -80 -47 -127 -81 -157 -233 -254 -549 -352 -36 -11 -69 -24 -75 -28 -14
-11 -148 -50 -171 -50 -10 0 -34 11 -53 23 -49 32 -86 57 -131 87 -20 14 -52
35 -71 47 -218 138 -624 532 -788 764 -98 138 -161 231 -161 238 0 4 -8 17
-17 31 -23 31 -76 121 -108 185 -14 28 -29 57 -35 65 -17 27 -90 189 -90 200
0 6 -11 32 -25 58 -14 26 -25 53 -25 61 0 8 -8 33 -19 55 -26 56 -87 256 -105
342 -8 39 -20 82 -25 95 -9 21 -31 160 -63 394 -14 103 -14 566 0 670 27 201
53 364 67 410 8 28 24 84 34 125 39 152 99 327 142 416 10 22 19 46 19 53 0 7
33 78 74 159 93 186 90 181 204 362 168 267 424 561 664 761 139 116 256 203
320 238 20 12 40 25 43 31 3 6 23 19 43 31 20 11 62 35 92 54 30 19 78 46 105
59 28 14 57 30 65 35 8 6 56 29 105 51 50 23 112 53 140 66 27 13 57 24 67 24
16 0 17 -5 11 -42z m3692 -578 c114 -99 337 -330 412 -427 104 -134 129 -169
162 -222 l33 -56 -68 65 c-38 36 -117 111 -176 166 -58 56 -146 146 -195 200
-108 121 -294 364 -278 364 4 0 53 -41 110 -90z m-3130 -3985 c113 -442 361
-1229 500 -1585 68 -175 147 -340 176 -366 18 -16 39 -19 133 -21 182 -4 578
-24 626 -32 l45 -7 -50 -12 c-27 -7 -108 -19 -180 -27 -71 -8 -159 -19 -195
-25 -84 -13 -486 -13 -570 0 -36 6 -123 17 -195 25 -127 15 -307 49 -353 66
l-24 9 6 578 c3 317 9 654 12 747 9 257 -9 540 -66 1035 -31 272 -25 280 31
40 28 -118 75 -309 104 -425z m2005 -2061 c0 -11 -5 -14 -16 -10 -9 3 -21 6
-27 6 -16 0 14 20 31 20 6 0 12 -7 12 -16z"/>
<path d="M17670 2560 l0 -1250 205 0 204 0 3 103 3 102 32 -56 c36 -64 88
-113 152 -143 38 -18 65 -21 161 -21 110 0 118 1 182 33 105 52 172 139 216
285 23 77 30 1046 8 1172 -43 254 -212 401 -438 382 -123 -10 -223 -73 -281
-176 l-32 -56 -3 438 -2 437 -205 0 -205 0 0 -1250z m667 239 c30 -15 52 -35
71 -67 l27 -47 3 -430 c2 -294 -1 -444 -8 -475 -14 -54 -50 -104 -91 -126 -34
-17 -111 -20 -150 -6 -35 14 -86 75 -99 119 -8 26 -10 180 -8 485 l3 446 30
43 c55 78 137 99 222 58z"/>
<path d="M21570 3763 c0 -23 273 -2177 301 -2375 l11 -78 243 0 242 0 6 43 c3
23 49 449 102 947 54 498 99 907 101 909 2 2 6 2 8 0 2 -2 47 -420 100 -929
54 -509 99 -935 102 -947 l4 -23 243 0 243 0 157 1228 c87 675 158 1233 157
1240 0 9 -46 12 -194 12 l-194 0 -6 -47 c-3 -27 -42 -460 -87 -963 -45 -503
-83 -917 -85 -919 -2 -2 -6 -2 -9 1 -3 2 -50 423 -105 934 -55 511 -103 944
-106 962 l-5 32 -220 0 c-167 0 -221 -3 -224 -12 -2 -7 -50 -440 -105 -963
-56 -522 -104 -952 -106 -954 -2 -2 -6 -2 -8 0 -4 3 -176 1891 -176 1922 0 4
-88 7 -195 7 l-195 0 0 -27z"/>
<path d="M23790 2550 l0 -1240 180 0 180 0 0 932 c0 512 2 929 5 926 5 -4 315
-1823 315 -1847 0 -8 52 -11 184 -11 167 0 185 2 190 18 2 9 73 426 158 926
l153 909 3 -926 2 -927 185 0 185 0 0 1240 0 1240 -284 0 -284 0 -6 -32 c-3
-18 -69 -433 -146 -923 -78 -489 -144 -897 -147 -905 -4 -10 -9 -6 -15 15 -4
17 -71 428 -148 915 -77 487 -142 895 -145 908 l-5 22 -280 0 -280 0 0 -1240z"/>
<path d="M15040 3764 c-121 -52 -172 -210 -103 -322 39 -63 104 -102 180 -109
50 -4 66 -1 113 24 77 39 113 93 118 177 2 35 -1 81 -8 101 -16 49 -66 104
-115 126 -49 23 -137 24 -185 3z"/>
<path d="M14172 3149 c-65 -25 -140 -97 -179 -170 l-28 -54 -5 110 -5 110
-202 3 -203 2 0 -920 0 -920 205 0 205 0 0 683 c0 640 2 684 19 722 20 46 70
92 107 101 14 4 46 4 72 1 37 -4 53 -12 78 -40 18 -19 37 -52 43 -74 7 -25 11
-266 11 -715 l0 -678 200 0 200 0 0 738 c0 698 -1 743 -19 815 -25 96 -52 148
-107 207 -64 68 -126 93 -244 97 -78 3 -104 -1 -148 -18z"/>
<path d="M16224 3156 c-86 -28 -154 -89 -205 -186 l-24 -45 -5 110 -5 110
-200 0 -200 0 -3 -917 -2 -918 205 0 205 0 0 673 c0 438 4 685 11 710 42 154
247 169 288 21 7 -26 11 -260 11 -721 l0 -683 205 0 205 0 0 673 c0 438 4 685
11 710 39 142 222 171 280 44 18 -40 19 -77 19 -734 l0 -693 206 0 205 0 -3
753 c-4 831 -2 802 -70 929 -57 107 -155 168 -285 176 -168 11 -313 -74 -373
-218 -7 -17 -16 -30 -20 -30 -4 0 -15 20 -25 45 -24 65 -103 147 -167 175 -65
29 -201 37 -264 16z"/>
<path d="M20820 3154 c-195 -42 -345 -192 -379 -378 -24 -129 -6 -277 44 -377
62 -123 148 -196 347 -294 241 -119 289 -174 291 -332 1 -101 -17 -137 -80
-165 -57 -25 -127 -21 -170 10 -46 33 -66 85 -71 185 l-4 87 -194 0 -194 0 0
-82 c1 -263 141 -446 387 -504 92 -22 268 -22 352 0 196 52 336 193 371 373
17 84 8 261 -16 333 -26 78 -90 167 -165 228 -38 31 -125 82 -214 127 -248
123 -288 165 -293 310 -5 126 39 187 135 188 106 2 151 -55 160 -203 l6 -90
183 0 184 0 0 73 c0 338 -192 528 -530 526 -47 0 -114 -7 -150 -15z"/>
<path d="M14930 2230 l0 -920 200 0 200 0 0 920 0 920 -200 0 -200 0 0 -920z"/>
<path d="M19064 3136 c-3 -7 -3 -346 -1 -752 3 -562 7 -751 17 -789 33 -127
102 -225 191 -271 67 -34 165 -47 242 -33 115 20 197 82 254 191 l28 53 3
-112 3 -113 204 0 205 0 -2 918 -3 917 -202 3 -203 2 0 -672 c0 -450 -4 -686
-11 -712 -15 -53 -75 -115 -121 -125 -48 -11 -116 4 -146 32 -51 47 -52 68
-52 799 l0 678 -200 0 c-160 0 -202 -3 -206 -14z"/>
</g>
</svg>
