<svg xmlns="http://www.w3.org/2000/svg" viewBox="0 0 882 250">
  <style>
    .green {
      fill:#5abe5c;
    }
    .orange {
      fill:#fec547;
    }
    .text {
      fill:#00364b;
    }
    .red {
      fill:#f36864;
    }
    @media (prefers-color-scheme: dark) {
      .text {
        fill: #ebeeef;
      }
    }
  </style>
  <title>yabai logo banner</title>
  <path class="green" d="M336.74,59.88a10.84,10.84,0,0,1,15.32,0l24.66,24.66L385.29,76,360.62,51.32a22.94,22.94,0,0,0-32.44,0L303.72,75.77l8.56,8.56Z"/>
  <path class="orange" d="M275.43,136.51a10.83,10.83,0,0,1,0-15.32L300,96.6,291.46,88l-24.59,24.6a22.95,22.95,0,0,0,0,32.45l24.57,24.56L300,161.1Z"/>
  <path class="text" d="M401.49,72a8.67,8.67,0,0,0-12.26,0l-44.62,44.63L300,72a8.67,8.67,0,1,0-12.26,12.26l44.61,44.62L291,170.12l-3.64,3.62A8.67,8.67,0,1,0,299.56,186L401.49,84.29A8.68,8.68,0,0,0,401.49,72Z"/>
  <circle class="green" cx="559.62" cy="128.92" r="9.34"/>
  <circle class="text" cx="610.8" cy="81.82" r="9.34"/>
  <circle class="orange" cx="487.69" cy="128.92" r="10.21"/>
  <path class="text" d="M487.69,97.33a31.59,31.59,0,1,1,0,63.17,31.31,31.31,0,0,1-17-5,7.52,7.52,0,0,1-14.6-2.54V78.16a7.54,7.54,0,0,1,15.07,0v23.89A31.43,31.43,0,0,1,487.69,97.33Zm16.51,31.59a16.51,16.51,0,1,0-16.51,16.51A16.54,16.54,0,0,0,504.2,128.92Z"/>
  <path class="text" d="M610.8,160.5a7.53,7.53,0,0,1-7.53-7.53V105a7.54,7.54,0,1,1,15.07,0v48A7.54,7.54,0,0,1,610.8,160.5Z"/>
  <path class="red" d="M412.17,118.7A10.22,10.22,0,1,1,402,128.92,10.23,10.23,0,0,1,412.17,118.7Z"/>
  <path class="text" d="M436.22,97.48a7.51,7.51,0,0,0-7,4.89l-.51-.31h0l-.06,0-.19-.12h0a31.57,31.57,0,1,0,.72,53.6A7.52,7.52,0,0,0,443.76,153V105A7.55,7.55,0,0,0,436.22,97.48Zm-24.05,48a16.52,16.52,0,1,1,16.51-16.51A16.54,16.54,0,0,1,412.17,145.43Z"/>
  <path class="text" d="M583.67,97.48a7.53,7.53,0,0,0-7,4.89l-.5-.31h0l-.06,0-.19-.12h0a30.46,30.46,0,0,0-20.26-4.29,31.55,31.55,0,0,0,0,62.59,30.69,30.69,0,0,0,21-4.7A7.52,7.52,0,0,0,591.2,153V105A7.54,7.54,0,0,0,583.67,97.48Zm-24,48a16.52,16.52,0,1,1,16.51-16.51A16.54,16.54,0,0,1,559.62,145.43Z"/>
  <path class="red" d="M397.4,88.38l-8.57,8.55,5.78,5.78a31.33,31.33,0,0,1,12.23-4.89Z"/>
  <path class="red" d="M352.06,198.11a10.84,10.84,0,0,1-15.32,0l-24.62-24.62-8.57,8.56,24.63,24.62a22.94,22.94,0,0,0,32.44,0l46.6-46.6a31.43,31.43,0,0,1-12.35-4.76Z"/>
</svg>
